<svg id="拜年猴子" xmlns="http://www.w3.org/2000/svg" width="132.062" height="185.031" viewBox="0 0 132.062 185.031">
  <metadata><?xpacket begin="﻿" id="W5M0MpCehiHzreSzNTczkc9d"?>
<x:xmpmeta xmlns:x="adobe:ns:meta/" x:xmptk="Adobe XMP Core 5.6-c138 79.159824, 2016/09/14-01:09:01        ">
   <rdf:RDF xmlns:rdf="http://www.w3.org/1999/02/22-rdf-syntax-ns#">
      <rdf:Description rdf:about=""/>
   </rdf:RDF>
</x:xmpmeta>
<?xpacket end="w"?></metadata>
<defs>
    <style>
      .cls-1 {
        opacity: 0.08;
      }

      .cls-2 {
        fill: #9f0e0e;
      }

      .cls-10, .cls-13, .cls-15, .cls-2, .cls-3, .cls-4, .cls-5, .cls-6, .cls-7, .cls-8, .cls-9 {
        fill-rule: evenodd;
      }

      .cls-3 {
        fill: #6f2828;
      }

      .cls-4 {
        fill: #cf0808;
      }

      .cls-5 {
        fill: #ffaf76;
      }

      .cls-6 {
        fill: #e62f2f;
      }

      .cls-7 {
        fill: #fce0c3;
      }

      .cls-8 {
        fill: #ffd0a0;
      }

      .cls-9 {
        fill: #4bbced;
      }

      .cls-10 {
        fill: #fffefd;
      }

      .cls-11 {
        fill: #311e16;
      }

      .cls-12 {
        fill: #fff;
      }

      .cls-13 {
        fill: #ff613e;
      }

      .cls-14, .cls-15 {
        fill: #ffd855;
      }
    </style>
  </defs>
  <ellipse id="椭圆_24" data-name="椭圆 24" class="cls-1" cx="68.031" cy="176.031" rx="37" ry="9"/>
  <path id="矩形_1" data-name="矩形 1" class="cls-2" d="M169.991,293.653a23.018,23.018,0,0,1,.273,5.174l-4.987,29.88c-0.346,4.919-3.033,8.517-6.043,8.608s-5.8-3.343-6.285-8.236L148,308c-3.926.323-5.631,20.577-5.631,20.577-0.269,4.926-2.9,8.584-5.911,8.742s-5.851-3.214-6.414-8.1l-6.476-29.633a22.354,22.354,0,0,1,.018-6.87l-0.048-.511,0.169,0c1.016-3.777,3.835-3.38,5.862-4.76,4.122-2.807,9.685-1.612,11.483,4.967l11.238,0.133c1.081-11.084,6.2-23.3,8.588-18.716,0.185,0.356,7.094,9.13,8.959,18.925l0.208,0Z" transform="translate(-79.969 -159.969)"/>
  <path id="圆角矩形_5" data-name="圆角矩形 5" class="cls-3" d="M156.73,326H163a5,5,0,0,1,5,5v2a5,5,0,0,1-5,5h-6.27a5,5,0,0,1-5-5v-2A5,5,0,0,1,156.73,326Z" transform="translate(-79.969 -159.969)"/>
  <path id="圆角矩形_5_拷贝" data-name="圆角矩形 5 拷贝" class="cls-3" d="M133,326h6.27a5,5,0,0,1,5,5v2a5,5,0,0,1-5,5H133a5,5,0,0,1-5-5v-2A5,5,0,0,1,133,326Z" transform="translate(-79.969 -159.969)"/>
  <path id="形状_10" data-name="形状 10" class="cls-4" d="M135.068,248.084S129.445,265.941,122.015,295c0,0,18.546,11.307,49.6,0,0,0-5.738-25.535-11.748-45.61Z" transform="translate(-79.969 -159.969)"/>
  <path id="形状_40" data-name="形状 40" class="cls-4" d="M136,251l-17,17,9.544,3.157Z" transform="translate(-79.969 -159.969)"/>
  <path id="形状_41" data-name="形状 41" class="cls-4" d="M158,250l19,14-14.52,3.631Z" transform="translate(-79.969 -159.969)"/>
  <path id="椭圆_19_拷贝" data-name="椭圆 19 拷贝" class="cls-5" d="M143.1,265.986c3.5-1.485,7.1-.718,8.055,1.712s-1.117,5.6-4.615,7.087-7.105.718-8.055-1.712S139.6,267.47,143.1,265.986Z" transform="translate(-79.969 -159.969)"/>
  <path id="形状_39" data-name="形状 39" class="cls-6" d="M119,267c1.8-1.6,22.143,1.9,22.143,1.9l0.668,8.5s-19.959,3.068-21.754.674S117.205,268.6,119,267Z" transform="translate(-79.969 -159.969)"/>
  <path id="椭圆_19" data-name="椭圆 19" class="cls-7" d="M151.5,262.548c3.714,0.721,6.351,3.4,5.89,5.975s-3.846,4.086-7.56,3.366-6.35-3.4-5.889-5.976S147.787,261.827,151.5,262.548Z" transform="translate(-79.969 -159.969)"/>
  <path id="形状_39_拷贝" data-name="形状 39 拷贝" class="cls-6" d="M155.217,275.614s20.045-2.922,21.242-3.521,3.16-6.21.368-8.4-21.366.028-21.366,0.028Z" transform="translate(-79.969 -159.969)"/>
  <path id="椭圆_10" data-name="椭圆 10" class="cls-8" d="M150.2,239.31c4.636,1.449,7.017,7.034,5.317,12.477s-6.835,8.68-11.471,7.231-7.016-7.034-5.317-12.476S145.56,237.862,150.2,239.31Z" transform="translate(-79.969 -159.969)"/>
  <path id="椭圆_3_拷贝_4" data-name="椭圆 3 拷贝 4" class="cls-7" d="M100.553,191.05a21.658,21.658,0,1,0,22.553,20.619A21.649,21.649,0,0,0,100.553,191.05Z" transform="translate(-79.969 -159.969)"/>
  <path id="椭圆_3_拷贝_3" data-name="椭圆 3 拷贝 3" class="cls-7" d="M189.461,194.375a21.657,21.657,0,1,0,22.552,20.618A21.649,21.649,0,0,0,189.461,194.375Z" transform="translate(-79.969 -159.969)"/>
  <path id="椭圆_3_拷贝" data-name="椭圆 3 拷贝" class="cls-5" d="M189.689,202.688a13.343,13.343,0,1,0,13.9,12.7A13.337,13.337,0,0,0,189.689,202.688Z" transform="translate(-79.969 -159.969)"/>
  <path id="椭圆_3_拷贝_2" data-name="椭圆 3 拷贝 2" class="cls-5" d="M100.782,199.363a13.343,13.343,0,1,0,13.9,12.7A13.339,13.339,0,0,0,100.782,199.363Z" transform="translate(-79.969 -159.969)"/>
  <path id="圆角矩形_2" data-name="圆角矩形 2" class="cls-7" d="M155.771,190.266L134.4,191.274c-16.866.795-29.808,17.336-29.03,34.261,1.122,24.388,22.214,29.665,39.08,28.87l4.644-.219c16.866-.8,39.89-7.216,38.725-32.537C187.041,204.724,172.637,189.471,155.771,190.266Z" transform="translate(-79.969 -159.969)"/>
  <path id="形状_3" data-name="形状 3" class="cls-9" d="M184.806,237.306s3.722-41.663-23.262-45.184c-13.916-1.816-26.217-1.067-32.088,1.1S107,197.81,107.96,237.149c0,0-21.952-37.862,19.291-57.9,15.494-7.051,29.925-15.02,32.475-16.588s-5.133,10.183-7.4,11.4,12.568-3.836,12.568-3.836-0.038,5.163-1.578,6.963,7.957,0.89,7.957.89a11.779,11.779,0,0,0-.854,4.218C169.192,183.4,204.217,196.907,184.806,237.306Z" transform="translate(-79.969 -159.969)"/>
  <path id="椭圆_4" data-name="椭圆 4" class="cls-10" d="M167.493,206.742a9.828,9.828,0,1,0,10.467,9.1A9.827,9.827,0,0,0,167.493,206.742Z" transform="translate(-79.969 -159.969)"/>
  <circle id="椭圆_5" data-name="椭圆 5" class="cls-11" cx="88.375" cy="57.25" r="7.594"/>
  <circle id="椭圆_5_拷贝" data-name="椭圆 5 拷贝" class="cls-12" cx="83.828" cy="53.328" r="3.016"/>
  <path id="椭圆_4_拷贝" data-name="椭圆 4 拷贝" class="cls-10" d="M124.494,207.733a9.828,9.828,0,1,0,10.466,9.095A9.825,9.825,0,0,0,124.494,207.733Z" transform="translate(-79.969 -159.969)"/>
  <circle id="椭圆_5_拷贝_2" data-name="椭圆 5 拷贝 2" class="cls-11" cx="45.36" cy="57.844" r="7.609"/>
  <circle id="椭圆_5_拷贝_2-2" data-name="椭圆 5 拷贝 2" class="cls-12" cx="40.656" cy="53.578" r="3"/>
  <path id="椭圆_6" data-name="椭圆 6" class="cls-5" d="M147.422,222c-3.244.077-5.856,1.312-5.834,2.76s2.669,2.558,5.913,2.481,5.855-1.311,5.833-2.759S150.666,221.927,147.422,222Z" transform="translate(-79.969 -159.969)"/>
  <path id="椭圆_7" data-name="椭圆 7" class="cls-13" d="M137.679,232.446c-0.015,4.681,7.89,6.5,9.794,6.589,2.046,0.1,9.7-1.909,9.785-6.589H137.679Z" transform="translate(-79.969 -159.969)"/>
  <circle id="椭圆_20" data-name="椭圆 20" class="cls-14" cx="66.86" cy="119.391" r="2.609"/>
  <circle id="椭圆_20_拷贝" data-name="椭圆 20 拷贝" class="cls-14" cx="66.86" cy="131.109" r="2.609"/>
  <path id="椭圆_22" data-name="椭圆 22" class="cls-4" d="M116.833,160.239a4.562,4.562,0,1,1-2.8,5.812A4.571,4.571,0,0,1,116.833,160.239Z" transform="translate(-79.969 -159.969)"/>
  <path id="椭圆_21" data-name="椭圆 21" class="cls-4" d="M111.215,188.436a11.691,11.691,0,0,1-3.563-5.083c-2.482-7.075,2.4-15.221,10.906-18.194s17.412,0.353,19.893,7.429a11.67,11.67,0,0,1,.391,6.192Z" transform="translate(-79.969 -159.969)"/>
  <path id="椭圆_23" data-name="椭圆 23" class="cls-15" d="M118.715,185.438a23.292,23.292,0,0,1-1.305-2.995c-2.392-6.789-1.3-13.358,2.441-14.672s8.711,3.125,11.1,9.915a23.1,23.1,0,0,1,.861,3.151Z" transform="translate(-79.969 -159.969)"/>
  <path id="圆角矩形_4" data-name="圆角矩形 4" class="cls-4" d="M109.135,183.64l28.336-9.9a3.91,3.91,0,1,1,2.588,7.38l-28.336,9.9A3.91,3.91,0,1,1,109.135,183.64Z" transform="translate(-79.969 -159.969)"/>
</svg>
