<?xml version="1.0" standalone="no"?><!DOCTYPE svg PUBLIC "-//W3C//DTD SVG 1.1//EN" "http://www.w3.org/Graphics/SVG/1.1/DTD/svg11.dtd"><svg t="1530602754798" class="icon" style="" viewBox="0 0 1024 1024" version="1.1" xmlns="http://www.w3.org/2000/svg" p-id="5437" xmlns:xlink="http://www.w3.org/1999/xlink" width="32" height="32"><defs><style type="text/css"></style></defs><path d="M511.998465 66.320475c-245.76131 0-444.98777 199.22646-444.98777 444.98777 0 245.750053 199.22646 444.979584 444.98777 444.979584 245.762333 0 444.988794-199.228507 444.988794-444.979584C956.987259 265.546935 757.760798 66.320475 511.998465 66.320475L511.998465 66.320475zM787.323091 400.624377l-298.918997 298.907741c-2.929726 2.932796-8.197706 7.458879-8.197706 7.458879s-4.611018 5.345752-7.54279 8.277524l-15.727193 15.72617c-8.689916 8.689916-22.774703 8.689916-31.467689 0L236.678956 542.207999c-8.691963-8.689916-8.691963-22.774703 0-31.457456l15.730263-15.730263c8.692986-8.686846 22.775726-8.686846 31.466666 0l157.325142 157.319002L740.127186 353.422332c8.686846-8.68173 22.775726-8.68173 31.462572 0l15.732309 15.739473C796.011984 377.844557 796.011984 391.935484 787.323091 400.624377L787.323091 400.624377zM787.323091 400.624377" p-id="5438" fill="#10c469"></path></svg>